<svg xmlns="http://www.w3.org/2000/svg" width="48" height="48" viewBox="0 0 48 48">
  <g id="google-plus" transform="translate(10.853 15.783)">
    <path id="Path_154" data-name="Path 154" d="M22.407,9h-2.48v2.468H17.459v2.48h2.468v2.468h2.48V13.948h2.468v-2.48H22.407Z" transform="translate(2.336 -3.898)" fill="#f0e3d0"/>
    <path id="Path_155" data-name="Path 155" d="M8.5,21.507c4.907,0,8.167-3.445,8.167-8.306a7.266,7.266,0,0,0-.138-1.415H8.5v2.923h4.827A4.606,4.606,0,0,1,8.5,18.374a5.372,5.372,0,0,1,0-10.743,4.777,4.777,0,0,1,3.388,1.311L14.2,6.727A8.132,8.132,0,0,0,8.5,4.5a8.5,8.5,0,1,0,0,17.007Z" transform="translate(0 -4.5)" fill="#f0e3d0"/>
  </g>
  <g id="Ellipse_74" data-name="Ellipse 74" fill="none" stroke="#f0e3d0" stroke-width="1">
    <circle cx="24" cy="24" r="24" stroke="none"/>
    <circle cx="24" cy="24" r="23.5" fill="none"/>
  </g>
</svg>
